PLOT

After graduating from Emory University, top student and athlete Christopher McCandless abandons his possessions, gives
his entire $24,000 savings account to charity and hitchhikes to Alaska to live in the wilderness. Along
the way, Christopher encounters a series of characters that shape his life.
 
http://www.imdb.com/title/tt0758758/


Encoded By .......: BigPerm1828
Runtime ..........: 2h 28mn
File Size ........: 1.21 GB
Resolution .......: 718x352
IMDb URL .........: http://www.imdb.com/title/tt0758758/
Genre ............: Adventure,Biography,Drama
Language .........: English
Codec ID .........: mp4
Format : MPEG-4
Format profile : Base Media / Version 2
Codec ID : mp42
File size : 1.21 GB
Duration : 2h 28mn
Overall bit rate : 1 173 Kbps
Video
ID : 1
Format : AVC
Format/Info : Advanced Video Codec
Format profile : Main@L3.0
Format settings, CABAC : Yes
Format settings, ReFrames : 2 frames
Codec ID : avc1
Codec ID/Info : Advanced Video Coding
Duration : 2h 28mn
Bit rate mode : Variable
Bit rate : 1 009 Kbps
Width : 718 pixels
Height : 352 pixels
Display aspect ratio : 2.40:1
Original display aspect ratio : 2.40:1
Frame rate mode : Variable
Frame rate : 23.976 fps
Minimum frame rate : 14.985 fps
Maximum frame rate : 29.970 fps
Color space : YUV
Chroma subsampling : 4:2:0
Bit depth : 8 bits
Scan type : Progressive
Bits/(Pixel*Frame) : 0.166
Stream size : 1.04 GiB (86%)
Writing library : x264 core 79
Audio
ID : 2
Format : AAC
Format/Info : Advanced Audio Codec
Format version : Version 4
Format profile : LC
Codec ID : 40
Duration : 2h 28mn
Bit rate mode : Variable
Bit rate : 159 Kbps
Maximum bit rate : 262 Kbps
Channel(s) : 2 channels
Channel positions : Front: L R
Sampling rate : 48.0 KHz
Compression mode : Lossy
Stream size : 169 MiB (14%)
Language : English7
 
http://www.shotpix.com/images/48171452099090784428.png
 
http://www.shotpix.com/images/05385340978829059625.png
 
http://www.shotpix.com/images/12363686349639163918.png
 
http://www.shotpix.com/images/68744294484510751767.png